<svg version="1.2" xmlns="http://www.w3.org/2000/svg" viewBox="0 0 137 155" width="137" height="155"><path fill="#ff0000" class="s0" d="m44.2 154.3h-10.5l-3.2-7.7h-17.4l-2.9 7.7h-10.3l15.7-39h11.3zm-22.8-29.7l-5.7 15.2h12z" /><path fill="#ff0000" class="s0" d="m82.2 115.3h8.5v39h-9.7v-24.3l-10.6 12.2h-1.5l-10.5-12.2v24.3h-9.7v-39h8.5l12.5 14.5l12.5-14.5z" /><path fill="#ff0000" class="s0" d="m115.3 115.3c14.2 0 21.6 8.9 21.6 19.6c0 11.2-7.1 19.4-22.7 19.4h-16.1v-39zm-7.5 31.9h6.3c9.8 0 12.7-6.6 12.7-12.4c0-6.7-3.6-12.4-12.8-12.4h-6.2z" /><path fill="#ff0000" class="s0" d="m88.5 26.4h-42.4l-26.1-25.9l94.8-0.1v94.7l-26.3-26.5v-42.2z" /><path fill="#ff0000" class="s0" d="m46.4 69.4h38.1l-26.3 26.4h-38.9v-37.8l26.9-26.8l0.2 38.2z" /></svg>
