<?xml version="1.0" encoding="UTF-8" standalone="no"?>
<svg
   xmlns:dc="http://purl.org/dc/elements/1.1/"
   xmlns:cc="http://creativecommons.org/ns#"
   xmlns:rdf="http://www.w3.org/1999/02/22-rdf-syntax-ns#"
   xmlns:svg="http://www.w3.org/2000/svg"
   xmlns="http://www.w3.org/2000/svg"
   height="48"
   width="48"
   id="svg78"
   version="1.1"
   viewBox="0 0 48 48">
  <metadata
     id="metadata84">
    <rdf:RDF>
      <cc:Work
         rdf:about="">
        <dc:format>image/svg+xml</dc:format>
        <dc:type
           rdf:resource="http://purl.org/dc/dcmitype/StillImage" />
        <dc:title>Intel-Logo-Vector</dc:title>
      </cc:Work>
    </rdf:RDF>
  </metadata>
  <defs
     id="defs82" />
  <title
     id="title2">Intel-Logo-Vector</title>
  <g
     transform="matrix(0.04432874,0,0,0.04432874,-7.0303866,0.72755922)"
     id="g953">
    <path
       id="path61"
       fill="#007dc5"
       d="M 1236.61,370.81 C 1185.86,123 704.74,107.31 394.61,296.08 v 20.86 c 309.78,-159.26 749.19,-158.29 789.19,70 13.42,75.52 -29.11,154.18 -105.1,199.46 v 59.23 c 91.41,-33.53 185.17,-142 157.92,-274.78 M 673,804.51 C 459,824.25 236,793.16 204.72,626 189.44,543.51 227,456.1 276.86,401.77 v -29 C 187.13,451.46 138.49,551 166.51,668.68 202.28,819.57 393.64,905 685.79,876.62 801.43,865.43 952.66,828.24 1057.87,770.45 v -82 C 962.38,745.31 804.49,792.31 673,804.51" />
    <path
       id="path63"
       fill="#007dc5"
       d="m 1040.57,334.72 h -56.11 v 249.85 c 0,29.28 14.18,54.76 56.11,58.82 z" />
    <path
       id="path65"
       fill="#007dc5"
       d="m 372.58,425.94 h -56.2 v 163.24 c 0,29.39 14.2,54.83 56.24,58.82 z" />
    <rect
       id="rect67"
       fill="#007dc5"
       height="53.18"
       width="56.029999"
       y="342.29999"
       x="316.37" />
    <path
       id="path69"
       fill="#007dc5"
       d="m 708.55,645.41 c -45.41,0 -64.61,-31.55 -64.61,-62.65 V 366 h 55.61 v 60 h 41.87 v 44.9 h -41.87 v 108.43 c 0,12.68 6,19.73 19.22,19.73 h 22.65 v 46.35 z" />
    <path
       id="path71"
       fill="#007dc5"
       d="m 856.08,468.21 c -19,0 -33.65,9.81 -39.84,23 -3.61,8 -4.94,14.14 -5.35,23.92 h 85.7 c -1.09,-23.92 -11.93,-46.95 -40.51,-46.95 m -45.19,84.86 c 0,28.47 17.81,49.37 49.28,49.37 24.67,0 36.83,-6.84 51.08,-20.9 l 34.37,32.73 c -22,21.76 -45.12,35 -85.85,35 -53.24,0 -104.21,-29 -104.21,-113.74 0,-72.38 44.55,-113.31 103,-113.31 59.39,0 93.53,47.9 93.53,110.8 v 20.05 z" />
    <path
       id="path73"
       fill="#007dc5"
       d="m 523.62,470.86 c 16.32,0 23.09,8.06 23.09,21.14 v 153.74 h 55.62 V 491.68 c 0,-31.2 -16.63,-65.67 -65.47,-65.67 l -114.92,-0.07 v 219.8 h 55.65 V 470.86 Z" />
    <path
       id="path75"
       fill="#007dc5"
       d="m 1105.43,351.28 c 0,-2.68 -1.67,-3.54 -5.27,-3.54 h -3.55 v 7.65 c 0.55,0 3.08,0.12 3.55,0.12 3.6,0 5.27,-1.2 5.27,-3.76 z m 5.39,19.14 h -4.17 a 0.91,0.91 0 0 1 -0.83,-0.56 l -5.66,-9.59 a 1.62,1.62 0 0 0 -0.79,-0.44 h -2.58 v 9.57 a 1,1 0 0 1 -0.94,1 h -3.75 a 1,1 0 0 1 -1,-1 v -24.12 c 0,-1.42 0.47,-2 1.71,-2.17 1.24,-0.17 4.89,-0.33 6.84,-0.33 7,0 11.06,2.06 11.06,8.5 v 0.47 c 0,4 -2,6.17 -5,7.14 l 5.87,10 a 2,2 0 0 1 0.15,0.71 0.8,0.8 0 0 1 -0.92,0.82 m -9.89,-32 a 18.56,18.56 0 1 0 18.65,18.58 18.76,18.76 0 0 0 -18.64,-18.61 m 0,40.93 a 22.33,22.33 0 0 1 0,-44.65 22.33,22.33 0 1 1 0,44.65" />
  </g>
</svg>
