<svg version="1.2" xmlns="http://www.w3.org/2000/svg" viewBox="0 0 149 149" width="48" height="48">
	<title>amd-svg</title>
	<g id="Layer">
		<path id="Path 0" fill="#8cc63f" d="m144 25.1v96.7h-90.6l-0.3-47.5c-0.1-26.2-0.1-48 0.1-48.4c0.1-0.4 20.6-0.8 90.8-0.8zm-89.6 17.1c0 3 0.1 3.1 4.7 3.1c2.7 0 7.5 0.9 10.9 2c3.3 1.2 7.8 3.2 10 4.5c2.3 1.3 6.4 4.5 9.3 7.2c2.9 2.7 5.3 5.8 5.4 6.9c0 1.2-2.5 4.7-5.8 8.2c-3.2 3.4-8.8 8-12.4 10.3c-3.6 2.3-8.6 4.6-11.1 5.1c-2.5 0.5-6 0.7-7.8 0.5c-2.9-0.3-3.2-0.1-3.2 2.1c0 2.4 0.3 2.6 5.8 2.6c3.1 0 8.5-0.9 11.8-2c3.3-1.1 8.8-3.8 12.3-5.8c3.4-2.1 9.2-6.3 12.9-9.4c3.6-3 7.7-7 9.1-8.8l2.4-3.3c-7.4-7.4-12.5-11.6-16.1-14c-3.6-2.5-8.8-5.4-11.6-6.7c-2.7-1.2-7.3-2.6-10-3.2c-2.8-0.6-7.6-1.4-10.8-1.8l-5.7-0.6zm-0.2 16.1c0.1 3 0.6 3.7 2.4 3.8c1.3 0.2 3.4 1.1 4.8 2.1c1.4 1.1 3.9 3.8 5.5 6.1c1.7 2.2 3.3 4.1 3.6 4.2c0.2 0 2.7-2 5.5-4.5l5-4.5c-3.9-3.2-7.2-5.3-9.8-6.6c-2.6-1.4-7.6-2.9-11-3.4l-6.2-0.8zm46 32.1c-3.9 2.6-10 5.9-13.6 7.4c-3.6 1.5-10.1 3.4-14.4 4.3c-4.3 0.9-10 1.6-12.8 1.6c-5 0-5 0-5.1 3.3v3.3c12.1-1.3 20-2.3 25.2-3.2c5.3-0.9 13.9-2.9 19.2-4.6c5.2-1.7 13.4-5 18.1-7.4c4.7-2.4 9.8-5.2 11.3-6.2c2.3-1.4 2.6-2 1.6-2.9c-0.8-0.6-3.8-2.5-6.9-4.3c-3-1.7-6-3.1-6.5-3.1c-0.6 0-2.8 1.6-5.1 3.6c-2.2 1.9-7.2 5.6-11 8.2z" />
		<path id="Path 0" fill="#ff0000" d="m30.2 60.4l1-1h1v11.1v7v5.1v1v1v11.1l1 1h36.3v1l-1 1l-1 1l-1.1 1l-1 1l-1 1l-1 1l-1 1l-1 1l-1 1l-1 1l-1 1.1l-1 1l-1 1l-1 1l-1 1l-1 1l-1 1l-1.1 1l-1 1l-1 1l-1 1l-1 1l-1 1l-1 1h-1h-38.3v-37.2l1-1l1.1-1v-1l1-1.1l1-1h1l1-1v-1l1-1l1-1h1l1-1l1-1l1-1l1-1l1-1l1-1l1-1l1.1-1l1-1.1l1-1l1-1l1-1l1-1l1-1zm3 36.3v-1h37.3v1h-1zm-28.2 25.2h1v1h-1zm1 0h38.2v1h-38.2zm-1-37.3h1v37.3h-1zm27.2-25.2v-1h1v12.1h-1zm0 23.1h1v1h-1zm0 2.1h1v11h-1zm-1.1-26.2h1.1v1.1h-1.1zm-1 1h1v1h-1zm-1 1h1v1h-1zm-1 1h1v1h-1zm-1 1h1v1h-1zm-1 1h1v1h-1zm-5 5.1h1v1h-1zm-1 1h1v1h-1zm-1 1h1v1h-1zm-2 2h1v1h-1zm14-15.1h1.1v1h-1.1zm1.1 13.1h1v7.1h-1zm0-13.1h1v1h-1zm38.2 38.3h1v1h-1zm-45.3-31.3h1v1h-1zm-1 1.1h1v1h-1zm-1 1h1v1h-1zm-1 1h1v1h-1zm-4 4h1v1h-1zm-2.1 2h1.1v1h-1.1zm-1 1.1h1v1h-1zm-9 9h1v1h-1zm26.2-6h1v5h-1zm-27.2 6.1h1v1h-1zm27.2 0h1v1h-1zm12 38.3h1v1h-1zm-33.2-43.3h1v1h-1zm-4 4h1v1h-1zm62.4 14.1h1v1h-1zm-37.2-1h1v1h-1zm33.2 5h1v1.1h-1zm-7.1 7h1v1h-1zm-5 5h1v1.1h-1zm-7.1 7h1.1v1h-1.1zm-31.2-46.3h1v1h-1zm-2 2h1v1h-1zm14.1-14.1h1v1h-1zm-1 1h1v1h-1zm-1 1h1v1h-1zm-1 1h1v1.1h-1zm-1 1h1v1h-1zm-1 1h1v1h-1zm-2 2h1v1h-1zm-1 1h1v1h-1zm-1 1h1v1h-1zm-1 1h1v1.1h-1zm-1.1 1h1.1v1h-1.1zm44.3 33.2h1v1h-1zm-1 1h1v1h-1zm-7 7.1h1v1h-1zm-1 1h1v1h-1zm-1 1h1v1h-1zm-1 1h1v1h-1zm-1 1h1v1h-1zm-1 1.1h1v1h-1zm-2.1 2h1v1h-1zm-31.2-46.4h1v1.1h-1zm-8 8h1v1h-1zm24.1-24.2h1v1.1h-1zm-1 1h1v1h-1zm-1 1h1v1h-1zm-7 7h1v1h-1zm-12.1 12.1h1v1h-1zm55.4 22.2h1v1h-1zm-1 1h1v1h-1zm-1 1h1v1h-1zm-1.1 1h1.1v1h-1.1zm-4 4.1h1v1h-1zm-1 1h1v1h-1zm-2 2h1v1h-1zm-42.3-35.2h1v1h-1zm-1 1h1v1h-1zm-1 1h1v1h-1zm-2 2h1v1h-1zm-1 1h1v1h-1zm61.4 16.2h1v1h-1zm-1 1h1v1h-1zm-1 1h1v1h-1zm-11.1 11.1h1v1h-1z" />
		<path id="Path 19" fill="#ff0000" d="m8.1 28.2v-1h46.3v25.1h-22.2l-1-1l-1-1l-1-1l-1-1l-1-1l-1-1l-1-1l-1-1l-1-1l-1.1-1l-1-1l-1-1l-1-1.1l-1-1l-1-1l-1-1l-1-1l-1-1l-1-1l-1-1l-1-1l-1-1l-1-1zm-1-1v-1h47.3v1h-46.3zm25.1 25.2h22.2v1h-22.2zm-25.1-25.2h1v1h-1zm0 1h1v1h-1zm2 2h1v1h-1zm3 3h1v1h-1zm5 5.1h1v1h-1zm6.1 6h1v1h-1zm-2-2h1v1h-1zm6 6.1h1v1h-1zm1 1h1v1h-1zm3 3h1v1h-1zm-25.1-25.2h1v1.1h-1zm4 4h1v1h-1zm12.1 12.1h1v1h-1zm4 4h1v1h-1zm-13.1-13.1h1v1h-1zm1 1h1v1.1h-1zm4 4h1v1h-1zm6.1 6h1v1h-1zm-13.1-13.1h1v1.1h-1zm4 4h1v1h-1zm1 1h1v1h-1zm3 3h1v1h-1zm1 1h1.1v1h-1.1zm9.1 9.1h1v1h-1zm1 1h1v1h-1zm-22.1-22.1h1v1h-1zm-2-3h1v1h-1zm19.1 20.1h1v1h-1zm-5.1-6h1.1v1h-1.1zm2.1 2h1v1h-1zm5 5h1v1h-1zm2 2.1h1v1h-1zm1 1h1v1h-1zm-17.1-17.1h1v1h-1zm5 5h1v1h-1zm1 1h1v1h-1zm5.1 5.1h1v1h-1zm2 2h1v1h-1zm-14.1-14.1h1v1h-1zm4 4h1v1h-1zm1 1h1v1h-1zm6.1 6.1h1v1h-1zm-2-2h1v1h-1zm7 7h1v1h-1zm3 3.1h1v1h-1zm-22.1-22.2h1v1h-1zm5 5.1h1v1h-1zm11.1 11h1v1.1h-1zm-14.1-14.1h1v1h-1zm4 4h1v1h-1zm-5-5h1v1h-1zm-2-2h1v1h-1z" />
	</g>
</svg>
