<?xml version="1.0" encoding="UTF-8" standalone="no"?>
<svg
   xmlns:dc="http://purl.org/dc/elements/1.1/"
   xmlns:cc="http://creativecommons.org/ns#"
   xmlns:rdf="http://www.w3.org/1999/02/22-rdf-syntax-ns#"
   xmlns:svg="http://www.w3.org/2000/svg"
   xmlns="http://www.w3.org/2000/svg"
   viewBox="0 0 48 48"
   version="1.1"
   id="svg78"
   width="48"
   height="48">
  <metadata
     id="metadata84">
    <rdf:RDF>
      <cc:Work
         rdf:about="">
        <dc:format>image/svg+xml</dc:format>
        <dc:type
           rdf:resource="http://purl.org/dc/dcmitype/StillImage" />
        <dc:title>Intel-Logo-Vector</dc:title>
      </cc:Work>
    </rdf:RDF>
  </metadata>
  <defs
     id="defs82">
    <clipPath
       id="clipPath18"
       clipPathUnits="userSpaceOnUse">
      <path
         id="path16"
         d="M 0,612 H 792 V 0 H 0 Z" />
    </clipPath>
  </defs>
  <title
     id="title2">Intel-Logo-Vector</title>
  <g
     transform="translate(-0.10718875,-0.8747959)"
     id="g200">
    <path
       id="path75"
       style="fill:#000000;fill-opacity:1;stroke-width:0.0443287"
       d="m 30.727454,9.1462808 c -2.126743,0.02822 -4.333689,0.254822 -6.546876,0.652343 l 0.279297,0.2324222 -1.734375,1.580078 c 10.954531,-2.1172932 21.535524,-0.09237 22.820313,7.240234 0.594892,3.347707 -1.289662,6.834592 -4.658203,8.841797 v 2.625 c 4.05209,-1.486342 8.207959,-6.29567 7,-12.18164 C 46.622163,11.957393 39.321077,9.0322478 30.727454,9.1462808 Z m 11.146484,7.3867182 a 0.9902345,0.9902345 0 0 0 0,1.980469 0.9902345,0.9902345 0 1 0 0,-1.980469 z m -5.164063,0.002 v 11.076172 c 0,1.297946 0.629578,2.427447 2.488282,2.607422 V 16.534952 Z m 5.16211,0.164063 h 0.002 a 0.83160716,0.83160716 0 0 1 0.826172,0.824219 0.82274141,0.82274141 0 1 1 -0.828125,-0.824219 z m -0.05469,0.193359 c -0.08644,0 -0.249717,0.0081 -0.304687,0.01563 -0.05497,0.0075 -0.07422,0.03275 -0.07422,0.0957 v 1.070313 a 0.04432874,0.04432874 0 0 0 0.04297,0.04297 h 0.166015 a 0.04432874,0.04432874 0 0 0 0.04297,-0.04297 v -0.425781 h 0.113281 a 0.07181256,0.07181256 0 0 1 0.03516,0.01953 l 0.251953,0.425781 a 0.04033915,0.04033915 0 0 0 0.03516,0.02539 h 0.185547 a 0.03546299,0.03546299 0 0 0 0.04102,-0.03711 0.08865748,0.08865748 0 0 0 -0.0078,-0.03125 l -0.259766,-0.443359 c 0.132984,-0.043 0.222657,-0.139091 0.222657,-0.316406 v -0.02148 c 0,-0.285475 -0.179934,-0.376953 -0.490235,-0.376953 z m -0.134765,0.220703 h 0.15625 c 0.159582,0 0.234375,0.03745 0.234375,0.15625 v 0.02148 c 0,0.113486 -0.07479,0.166015 -0.234375,0.166015 -0.02084,0 -0.13187,-0.0039 -0.15625,-0.0039 z m -17.683594,0.808594 0.08203,0.07422 v -0.07422 z m 0.08203,1.941406 -2.042969,1.919922 2.042969,2.066406 v -1.277343 h 1.855469 v -1.990235 h -1.855469 z m 7.048828,0.550781 c -2.591015,0 -4.566406,1.812971 -4.566406,5.021485 0,3.756417 2.259079,5.042969 4.619141,5.042969 1.805509,0 2.831408,-0.586188 3.80664,-1.550782 L 33.465735,27.476358 C 32.834051,28.09962 32.2937,28.40214 31.20011,28.40214 c -1.395025,0 -2.183594,-0.925461 -2.183594,-2.1875 h 6.259766 v -0.890625 c 0,-2.788278 -1.513801,-4.910157 -4.146485,-4.910157 z m -0.111328,2.039063 c 1.266915,0 1.748555,1.019735 1.796875,2.080078 h -3.798828 c 0.01817,-0.433535 0.0763,-0.705917 0.236328,-1.060547 0.274395,-0.584696 0.923379,-1.019531 1.765625,-1.019531 z m -6.9375,2.283203 -2.208984,2.861328 3.197265,2.710938 h 0.867188 v -2.054688 h -1.003906 c -0.586025,0 -0.851563,-0.312911 -0.851563,-0.875 z m 15.882813,7.480469 c -4.232951,2.520532 -11.231761,4.60372 -17.060547,5.144531 -0.07929,0.0073 -0.158921,0.01095 -0.238281,0.01758 l -0.828126,0.675781 2.890626,1.031251 -1.328126,1.478515 c 0.02379,-0.0021 0.04633,-0.0035 0.07031,-0.0059 5.126175,-0.496039 11.830314,-2.145273 16.494141,-4.707032 z" />
    <path
       id="path24"
       style="fill:#000000;fill-opacity:1;fill-rule:nonzero;stroke:none;stroke-width:0.205168"
       d="m 18.024328,8.9939368 v 4.2851562 c 0.281695,-0.0224 0.562775,-0.04024 0.845704,-0.05078 1.411406,-0.04753 2.753909,0.07677 4.029296,0.314453 L 20.645422,12.079874 22.8505,10.066202 21.563391,8.9939368 Z m 0,4.2851562 c -9.5977954,0.77 -17.91015645,8.90039 -17.91015645,8.90039 0,0 4.70795705,13.607756 17.91015645,14.853516 v -2.46875 C 8.3364626,33.345142 5.0184686,22.667765 5.0184686,22.667765 c 0,0 4.34035,-6.402573 13.0058594,-7.064453 z m 0,2.324219 v 2.86914 c 0.513126,-0.0548 1.035052,-0.09375 1.582032,-0.09375 1.406796,0 2.638329,0.316244 3.703125,0.757813 l 0.222656,-0.208985 -2.419922,-2.210937 1.019531,-0.832031 c -1.025729,-0.232178 -2.111019,-0.362336 -3.261718,-0.326172 -0.286621,0.0089 -0.567293,0.02505 -0.845704,0.04492 z m 0,2.86914 c -5.839104,0.631107 -9.3554684,4.525391 -9.3554684,4.525391 0,0 2.0331984,7.612476 9.3554684,8.917969 v -2.261719 c -4.128203,-1.387173 -5.470703,-6.207031 -5.470703,-6.207031 0,0 2.394994,-2.862008 5.458985,-2.494141 h 0.01172 z m 0,2.480469 v 8.701172 c 0.692648,0.232414 1.459728,0.371093 2.31836,0.371094 0.781567,0 1.55321,-0.144637 2.308594,-0.378907 l -2.234375,-1.894531 2.423828,-3.140625 C 22.5039,24.053693 22.178079,23.533203 21.866125,23.113077 L 20.60636,21.835733 c -0.654495,-0.4561 -1.450023,-0.746031 -2.582032,-0.882812 z m 0,10.962891 v 2.648437 c 0.586574,0.0744 1.194153,0.119141 1.828126,0.119141 0.425193,0 0.840901,-0.01712 1.251953,-0.04297 l -0.875,-0.605469 2.925781,-2.318359 c -0.966091,0.242071 -1.946765,0.392578 -2.935547,0.392578 -0.779638,0 -1.509433,-0.07208 -2.195313,-0.193358 z m 0,5.117187 v 3.722656 h 3.78125 l 1.082032,-1.203124 -3.173828,-1.132813 1.640625,-1.335938 c -0.478132,0.02973 -0.944543,0.05078 -1.38086,0.05078 -0.671108,0 -1.31607,-0.0405 -1.949219,-0.101563 z" />
  </g>
</svg>
