<svg version="1.2" xmlns="http://www.w3.org/2000/svg" viewBox="0 0 659 659" width="48" height="48">
	<title>pop-svg</title>
	<g id="Background">
		<path id="Path 0" fill="#000000" d="m330.3 77.1c10.8 0 24.1 0.4 29.4 1c5.4 0.6 15.4 2.1 22.3 3.5c6.9 1.3 16.3 3.6 21 5c4.7 1.4 12.3 3.9 17 5.6c4.7 1.7 12.8 5.1 18 7.5c5.2 2.4 10.5 5.1 11.7 5.8c2.3 1.5 2.1 1.8-41.3 80.8c-24 43.5-46.3 84.7-49.5 91.5c-3.3 6.7-7.7 16.7-9.9 22.2c-2.2 5.5-5.1 14.2-6.4 19.3c-1.3 5-3 13-3.6 17.7c-0.8 5.3-1.1 13.7-0.7 22.5c0.4 10.6 1.2 16.5 3.1 24c1.5 5.5 4.6 14.1 6.9 19c2.4 4.9 6.7 12.6 9.7 17c3 4.4 8.9 11.3 13 15.5c4.1 4.1 11.8 10.4 17 13.8c5.2 3.4 12.9 7.7 17 9.4c4.1 1.7 11.3 4.2 16 5.5c4.7 1.3 13.5 2.8 19.5 3.5c8.5 0.9 13.5 0.9 22 0c6-0.7 14.4-2.1 18.5-3.2c4.1-1 11.3-3.5 16-5.5c4.7-1.9 11.9-5.7 16-8.3c4.1-2.5 10.6-7.4 14.5-10.7c3.8-3.3 9.6-9.4 12.8-13.5c3.3-4.1 7.4-10 9.1-13c1.7-3 4.4-8.2 5.8-11.5c1.5-3.3 3.8-9.8 5.1-14.5c1.4-4.7 3.1-13.2 3.7-19c1-7.9 1-13.1 0.2-21c-0.6-5.8-2-13.9-3.1-18c-1.1-4.1-3.5-11.1-5.3-15.5c-1.9-4.4-6-12.1-9.2-17c-3.2-4.9-9.1-12.3-13-16.4c-3.9-4-9.6-9.2-12.6-11.5c-3-2.4-8.6-6.1-12.5-8.4c-3.9-2.3-11-5.7-16-7.6c-5-1.9-13.7-4.4-19.5-5.6c-8.6-1.8-11.3-2-14.8-1.1c-2.6 0.7-5.2 2.3-6.7 4.1c-1.4 1.6-2.8 4.7-3.1 6.8c-0.4 2-0.1 5.4 0.5 7.5c0.6 2 2.3 4.8 3.8 6.2c1.8 1.6 4.8 2.9 8.3 3.5c3 0.6 8.4 1.8 12 2.7c3.6 0.9 10.3 3.6 15 5.8c4.7 2.3 11 6.2 14 8.6c3 2.4 7.7 6.6 10.4 9.4c2.7 2.7 7 8.1 9.5 12c2.6 3.9 6.1 10.4 7.8 14.5c1.7 4.1 3.9 11.6 4.8 16.5c1.2 6.1 1.6 11.6 1.2 17c-0.3 4.4-1.3 11.1-2.2 15c-1 3.9-3.3 10.4-5.2 14.5c-1.9 4.1-5.4 10.2-7.8 13.5c-2.3 3.3-6.9 8.5-10.1 11.6c-3.3 3.1-9 7.6-12.9 10.2c-3.9 2.5-10.4 5.9-14.5 7.5c-4.1 1.7-11.5 3.8-16.5 4.7c-6.5 1.3-11.7 1.6-19 1.2c-5.5-0.3-13.6-1.5-18-2.7c-4.4-1.2-11.8-4.1-16.5-6.5c-4.7-2.4-11.4-6.8-15-9.8c-3.6-2.9-8.9-8.2-11.8-11.7c-2.9-3.6-7.5-11-10.2-16.5c-2.7-5.5-5.6-13.3-6.4-17.2c-0.9-4.2-1.6-12.1-1.6-18.5c0-6.2 0.7-15.2 1.5-20c0.8-4.9 2.7-12.5 4.1-17c1.5-4.6 4.2-11.9 6.2-16.3c1.9-4.4 18.8-35.7 37.5-69.5c18.7-33.8 39.8-72.1 46.9-85c7.1-12.9 13.3-23.9 13.6-24.3c0.4-0.4 5 2.5 10.2 6.5c5.2 3.9 14.8 12.4 21.4 18.7c6.5 6.4 15.5 16.1 20.1 21.6c4.5 5.5 10.9 14.1 14.2 19c3.3 4.9 8.2 12.8 10.9 17.5c2.7 4.7 7.3 13.9 10.3 20.5c3 6.6 7.1 16.9 9.2 23c2 6.1 4.6 14.8 5.8 19.5c1.1 4.7 3 13.9 4.2 20.5c1.5 8.7 2.3 18 2.6 34c0.4 14.1 0.1 26.3-0.7 34c-0.7 6.6-2.5 18.1-4 25.5c-1.5 7.4-5.1 20.5-7.9 29c-3.1 9.3-8.3 21.9-13.1 31.5c-4.3 8.8-11.3 21.2-15.6 27.5c-4.2 6.3-10.4 14.9-13.8 19c-3.3 4.1-7.9 9.4-14.1 16.1l-78-0.1c-48.6 0-79.4 0.4-81.8 1c-2 0.6-5.3 2.5-7.3 4.3c-2.2 2-3.9 4.7-4.5 7.2c-0.6 2.2-0.7 5.4-0.4 7c0.4 1.6 1.9 4.5 3.4 6.4c1.4 1.9 4.4 4.3 6.6 5.3c3.7 1.6 8.6 1.8 64 1.8c59.8 0 60 0 57.5 2c-1.4 1.1-7.2 4.9-13 8.4c-5.8 3.6-16.1 9.2-23 12.5c-6.9 3.2-17.9 7.8-24.5 10.1c-6.6 2.3-16.3 5.2-21.5 6.6c-5.2 1.3-14.9 3.4-21.5 4.5c-8.6 1.5-18.3 2.2-34 2.6c-13.8 0.4-26.3 0.1-33.5-0.6c-6.3-0.7-17.1-2.3-24-3.7c-6.9-1.3-16.3-3.6-21-5c-4.7-1.4-12.3-3.9-17-5.6c-4.7-1.7-14.1-5.7-21-9c-6.9-3.2-16.3-8.2-21-11c-4.7-2.8-12-7.5-24-15.8l3.4-5.7c1.9-3.2 36.2-66.5 76.2-140.8c40-74.2 73.4-136.6 74.1-138.5c1-2.2 1.3-5 0.9-7.7c-0.4-2.7-1.7-5.5-3.5-7.5c-1.9-2.2-4.8-3.9-8.5-5c-5.2-1.7-13.1-1.8-103.1-1.8c-95.3 0-97.6 0-102 2c-2.7 1.2-5.3 3.3-6.5 5.3c-1.2 1.9-2 4.9-2 7.7c0 4.1 2.1 7.9 20.8 39.4c12.5 21.1 21.7 35.5 23.2 36.4c1.4 0.9 4.3 1.8 6.5 2c2.5 0.3 5.2-0.2 7.2-1.2c1.8-0.9 4.2-3.1 5.3-4.8c1.1-1.8 2-5 2-7c0-2.1-0.9-5.5-1.9-7.5c-1.1-2.1-7.1-12.6-25.1-42.8l36.7-0.3c20.3-0.1 53.6-0.1 111.3 0.3l-68.5 127c-37.7 69.9-69 127.5-69.5 128c-0.7 0.7-3.1-1-7.1-5c-3.3-3.3-9.9-10.7-14.5-16.5c-4.7-5.8-10.9-14.1-13.8-18.5c-2.9-4.4-7.6-12-10.4-17c-2.9-5-7.6-14.4-10.6-21c-2.9-6.6-6.9-16.7-8.9-22.5c-1.9-5.8-4.6-15.2-6-21c-1.4-5.8-3.4-15.4-4.4-21.5c-1.4-8.8-1.8-16.6-1.8-38.5c0-21.9 0.4-29.7 1.8-38.5c1-6 3-15.7 4.4-21.5c1.4-5.8 4.2-15.4 6.3-21.5c2-6 5.2-14.4 7-18.5c1.8-4.1 5.1-11.1 7.3-15.5c2.2-4.4 6.4-12 9.4-17c3.1-4.9 9.4-14.2 14.1-20.5c5-6.7 15.1-18 24.1-27.1c9.2-9.1 20.3-19 27.1-24.1c6.3-4.7 16.2-11.4 22-14.8c5.8-3.5 15.9-8.9 22.5-12c6.6-3.2 15.8-7.1 20.5-8.8c4.7-1.7 12.3-4.2 17-5.6c4.7-1.4 14.1-3.7 21-5c6.9-1.4 16.1-2.9 20.5-3.4c4.4-0.5 16.9-1 27.7-1.1z"/>
		<path id="Path 1" fill="#ffffff" d="m452.5 107c0.3 0 3.8 1.9 7.8 4.2c3.9 2.3 9.6 5.9 17.7 11.8l-2.4 4.2c-1.3 2.4-7.3 13.3-13.3 24.3c-6.1 11-26.3 47.7-45 81.5c-18.7 33.8-35.6 65.1-37.5 69.5c-2 4.4-4.7 11.7-6.2 16.3c-1.4 4.5-3.3 12.1-4.1 16.9c-0.8 4.9-1.5 13.9-1.5 20c0 6.5 0.7 14.4 1.6 18.5c0.8 4 3.7 11.8 6.4 17.3c2.7 5.5 7.3 12.9 10.2 16.5c2.9 3.5 8.2 8.8 11.8 11.7c3.6 3 10.3 7.4 15 9.8c4.7 2.4 12.1 5.3 16.5 6.5c4.4 1.2 12.5 2.4 18 2.7c7.3 0.4 12.5 0.1 19-1.2c5-0.9 12.4-3 16.5-4.7c4.1-1.6 10.6-5 14.5-7.5c3.9-2.6 9.6-7.1 12.9-10.2c3.2-3.1 7.8-8.3 10.1-11.6c2.4-3.3 5.9-9.4 7.8-13.5c1.9-4.1 4.2-10.6 5.2-14.5c0.9-3.9 1.9-10.6 2.2-15c0.4-5.4 0-10.9-1.2-17c-0.9-4.9-3.1-12.4-4.8-16.5c-1.7-4.1-5.2-10.6-7.8-14.5c-2.5-3.9-6.8-9.3-9.5-12c-2.7-2.8-7.4-7-10.4-9.4c-3-2.4-9.3-6.3-14-8.6c-4.7-2.2-11.4-4.9-15-5.8c-3.6-0.9-9-2.1-12-2.7c-3.5-0.6-6.5-1.9-8.3-3.5c-1.5-1.4-3.2-4.2-3.8-6.3c-0.6-2-0.9-5.4-0.5-7.5c0.3-2 1.7-5.1 3.1-6.7c1.5-1.8 4.1-3.4 6.8-4.1c3.4-0.9 6.1-0.7 14.7 1.1c5.8 1.2 14.5 3.7 19.5 5.6c5 1.9 12.1 5.3 16 7.6c3.9 2.3 9.5 6 12.5 8.4c3 2.3 8.7 7.5 12.6 11.5c3.9 4.1 9.8 11.5 13 16.4c3.2 4.9 7.3 12.6 9.2 17c1.8 4.4 4.2 11.4 5.3 15.5c1.1 4.1 2.5 12.2 3.1 18c0.8 7.9 0.8 13.1-0.2 21c-0.6 5.8-2.3 14.3-3.7 19c-1.3 4.7-3.6 11.2-5.1 14.5c-1.4 3.3-4.1 8.5-5.8 11.5c-1.7 3-5.8 8.9-9.1 13c-3.2 4.1-9 10.2-12.8 13.5c-3.9 3.3-10.4 8.2-14.5 10.7c-4.1 2.6-11.3 6.4-16 8.3c-4.7 2-11.9 4.5-16 5.5c-4.1 1.1-12.5 2.5-18.5 3.2c-8.5 0.9-13.5 0.9-22 0c-6.1-0.7-14.8-2.2-19.5-3.5c-4.7-1.3-11.9-3.8-16-5.5c-4.1-1.7-11.8-6-17-9.4c-5.2-3.4-12.9-9.7-17-13.8c-4.1-4.2-10-11.1-13-15.5c-3-4.4-7.3-12.1-9.7-17c-2.3-4.9-5.4-13.5-6.9-19c-1.9-7.5-2.7-13.4-3.1-24c-0.4-8.8-0.1-17.2 0.7-22.5c0.6-4.7 2.3-12.7 3.6-17.8c1.3-5 4.2-13.6 6.3-18.9c2.1-5.4 6.1-14.5 8.8-20.3c2.7-5.8 24.4-46.1 48.2-89.5c23.8-43.4 43.9-80 44.7-81.3c0.8-1.2 1.7-2.2 1.9-2.2z"/>
		<path id="Path 2" opacity=".8" fill="#7a7370" d="m218 229.5c54.7 0 77 0.1 49.5 0.2c-27.5 0.2-72.3 0.2-99.5 0c-27.2-0.1-4.7-0.2 50-0.2z"/>
		<path id="Path 3" fill="#ffffff" d="m217.3 230c76.7 0 100.8 0.3 104.4 1.3c2.9 0.8 5.6 2.4 7.5 4.5c1.7 1.9 3 4.9 3.4 7.5c0.5 3 0.1 5.4-1.3 8.7c-1.1 2.5-35.6 66.8-76.7 143c-41.1 76.2-75 138.9-75.4 139.3c-0.4 0.5-1.7 0.4-3-0.2c-1.2-0.6-3-1.9-4-2.9c-0.9-0.9-3.9-3.5-6.7-5.7c-2.7-2.2-6.3-5.6-8.1-7.5c-3.1-3.4-3.1-3.5-1.4-6c1-1.4 32-58.5 68.8-127c36.9-68.5 67.3-125.3 67.6-126.3c0.6-1.6-3.4-1.7-73.4-1.7c-40.7 0-74 0.3-74 0.7c0 0.5 5.2 9.6 11.6 20.3c6.4 10.7 12.4 21.2 13.5 23.2c1 2.1 1.9 5.5 1.9 7.5c0 2.1-0.9 5.3-2 7c-1.1 1.8-3.5 4-5.2 4.9c-2.1 1-4.8 1.5-7.3 1.2c-2.2-0.2-5.1-1.1-6.5-2c-1.5-0.9-10.7-15.3-23.2-36.4c-18.7-31.5-20.8-35.3-20.8-39.4c0-3 0.8-5.6 2.2-7.8c1.2-1.8 3.6-3.9 5.2-4.7c2.6-1.2 19.4-1.4 102.9-1.5z"/>
		<path id="Path 4" opacity=".8" fill="#b8b4b2" d="m219 257.5c41 0 57.6 0.1 37 0.2c-20.6 0.2-54.1 0.2-74.5 0c-20.3-0.1-3.5-0.2 37.5-0.2z"/>
		<path id="Path 5" fill="#a57631" d="m438.5 507.5c43.5 0 61 0.1 39 0.2c-22 0.2-57.6 0.2-79 0c-21.4-0.1-3.4-0.2 40-0.2z"/>
		<path id="Path 6" fill="#faa41a" d="m356.4 508h79.8c63.4 0 79.7 0.3 79.3 1.3c-0.3 0.6-4.2 4.6-8.7 8.8c-4.6 4.1-12 10.6-16.5 14.2c-4.6 3.7-8.9 6.7-9.5 6.7c-0.7 0-28.9 0-62.5 0c-52.5 0-61.7-0.2-64.3-1.5c-1.6-0.8-4.2-3.2-5.7-5.2c-2.2-2.9-2.8-4.7-2.8-8.9c0-3.8 0.6-6.1 2.1-8.1c1.1-1.5 3.6-3.8 5.4-5z"/>
		<path id="Path 7" fill="#9c702f" d="m419 539.5c33.3 0 46.8 0.1 30 0.2c-16.8 0.2-44 0.2-60.5 0c-16.5-0.1-2.8-0.2 30.5-0.2z"/>
		<path id="Path 8" fill="#000000" d="m354.5 2.5l0.7 3.5c0.5 1.9 2.2 12 3.9 22.5c1.7 10.5 3.2 19.1 3.3 19.2c0 0.1 5 0.9 11.1 1.8c6.1 0.9 16.2 2.9 22.5 4.4c6.3 1.6 15 3.9 19.2 5.2c4.3 1.3 7.9 2.2 8.1 1.9c0.2-0.3 2.3-3.2 4.8-6.6c2.4-3.4 8.2-11.5 21.1-29.9l5.1 1.8c2.9 1 13.1 5.7 22.7 10.5c15.9 7.9 17.5 8.9 17.4 11.2c-0.1 1.4-1.4 6.5-2.9 11.5c-1.5 4.9-3.8 12.4-5.2 16.5c-1.3 4.1-2.5 9-2.6 10.9c-0.2 3.3 0.3 3.8 8.3 9.3c4.7 3.2 9.8 6.9 11.4 8.1c1.7 1.2 5.9 4.6 9.5 7.6c3.6 3 9.2 7.9 18 16.6l15.3-8.6c8.4-4.8 17.4-9.9 20.1-11.3c4.5-2.5 4.8-2.5 6.5-0.8c0.9 1 3.5 3.8 5.7 6.3c2.2 2.4 5.8 6.6 8 9.3c2.2 2.8 6.8 8.8 10.2 13.5c3.5 4.8 5.9 9.1 5.5 9.7c-0.4 0.6-5.5 6.3-11.4 12.5c-5.8 6.3-12.4 13.4-18.5 20.4l4.5 7.5c2.4 4.1 6.8 12.2 9.7 18c2.8 5.8 6.9 14.9 9.1 20.3c2.5 6.4 4.4 9.7 5.4 9.7c0.8 0 10-0.7 20.5-1.5c10.5-0.8 20-1.5 21.3-1.5c1.8 0 2.5 1 4.2 6.2c1.1 3.5 3.6 13.3 5.5 21.8c1.8 8.5 3.6 16.4 4 17.5c0.3 1.1 0.2 2.5-0.2 3c-0.5 0.6-3.3 2.1-6.3 3.4c-3 1.3-6.2 2.6-7 3c-0.8 0.4-7.7 3.2-29.1 11.6l0.7 6c0.4 3.3 0.6 15.7 0.5 27.5c-0.1 11.8-0.3 23-0.6 28.3l19 7.6c10.5 4.2 20 8.2 21.3 8.9c1.2 0.6 2.2 1.9 2.2 2.7c0 0.8-0.4 2.3-1 3.2c-0.5 1-1.8 6.7-3 12.8c-1.1 6.1-3.3 15.3-7.6 30h-8c-4.3 0-14.6-0.4-37.9-1.7l-2.8 6.3c-1.5 3.5-2.7 6.7-2.7 7.1c0 0.5-2.5 6.1-5.7 12.5c-3.1 6.5-7.8 15.5-10.5 20c-2.6 4.6-4.8 8.9-4.8 9.5c0 0.7 2.6 4 5.8 7.3c3.2 3.3 9.9 10.6 24.2 26.5l-5.6 7.7c-3.2 4.3-10 12.9-15.3 19.2c-5.3 6.3-10.1 11.6-10.6 11.8c-0.5 0.3-3.3-0.8-6-2.2c-2.8-1.5-9-5-14-7.8c-5-2.8-11.3-6.3-14-7.9c-2.8-1.5-5.6-2.8-6.3-2.8c-0.6 0-4.5 3-8.4 6.8c-4 3.7-9.5 8.6-12.3 10.8c-2.7 2.3-9 7-14 10.5c-5 3.6-10 7.1-11.2 7.7c-1.3 0.7-2.3 1.9-2.3 2.7c0 0.8 2.7 10.5 6 21.5c3.3 11 6 20.5 6 21c0 0.5-6.2 4.1-13.8 7.9c-7.5 3.8-17.7 8.5-31.7 14.3l-2.3-2.9c-1.2-1.5-3.4-4.6-4.9-6.8c-1.5-2.2-5.4-7.8-8.7-12.5c-3.3-4.7-7-10-8.3-11.8c-2.2-3-2.5-3.1-5.5-2.1c-1.8 0.6-7.1 2.2-11.8 3.5c-4.7 1.3-13.7 3.5-20 4.8c-6.3 1.4-14.2 2.7-17.5 3.1c-3.3 0.4-6.5 1-7.1 1.3c-0.7 0.4-2.6 9-4.3 19.2c-1.7 10.2-3.4 20.1-3.9 22c-0.6 3.1-1.1 3.6-4.7 4.2c-2.2 0.4-11.9 0.7-21.5 0.7c-9.6 0-19.3-0.3-21.5-0.7c-3.8-0.7-4-0.8-4.7-5.7c-0.4-2.8-1.4-8.6-2.2-13c-0.8-4.4-2.1-12-2.8-16.9c-0.8-5.8-1.8-9.1-2.8-9.6c-0.8-0.4-4.2-1.1-7.5-1.5c-3.3-0.4-10.9-1.7-17-3.1c-6.1-1.3-15.7-3.7-21.5-5.3c-5.8-1.6-11.2-3.2-12-3.6c-1-0.4-2.8 1.3-5.9 5.7c-2.5 3.5-8.3 11.7-13 18.3c-4.7 6.6-8.6 12.2-8.8 12.5c-0.2 0.3-2.9-0.6-6-1.9c-3.2-1.3-12.1-5.5-19.8-9.2c-7.7-3.8-15.3-7.6-17-8.6c-1.7-1-3.1-1.8-3.3-1.8c-0.1 0 2-7.6 4.8-17c2.8-9.4 5.5-18.1 6-19.5c0.4-1.4 1.1-3.6 1.4-5c0.5-2 0-2.9-2.7-4.4c-1.7-1.1-9-6.3-16.2-11.6c-7.2-5.3-16.5-12.9-20.7-16.8c-5.2-4.8-8.4-7-9.5-6.7c-1 0.2-7.2 3.4-13.8 7.1c-6.6 3.7-14.8 8.2-18.2 10c-3.5 1.9-6.7 3.3-7.2 3.1c-0.5-0.1-4.1-4-8.1-8.7c-4-4.7-8.2-9.6-9.4-11c-1.1-1.4-4.7-6-7.9-10.3c-3.1-4.2-5.7-8.4-5.7-9.2c0-0.8 0.3-1.6 0.8-1.8c0.4-0.1 6.3-6.3 13.2-13.7c6.8-7.4 12.7-13.7 13-14c0.3-0.3 1.1-1.3 1.8-2.3c0.7-1 0.9-2.2 0.3-3c-0.4-0.6-2.1-3.5-3.6-6.2c-1.6-2.8-5.1-9.3-7.8-14.5c-2.7-5.2-7.1-14.7-14.3-32.5h-9c-4.9 0-15.2 0.4-36.9 1.8l-1.7-4.9c-0.9-2.7-2.4-8-3.3-11.9c-1-3.9-2.8-12.2-4.1-18.5c-1.3-6.3-2.4-11.9-2.4-12.5c0-0.6 1.6-1.8 3.7-2.7c2.1-0.9 7.6-3.2 12.3-5.1c4.7-1.9 12.3-5 25.5-10.4v-62.1l-5.5-2.2c-3-1.2-6.8-2.8-8.5-3.5c-1.7-0.7-8.4-3.5-15-6c-6.6-2.6-12.1-4.8-12.3-4.9c-0.2 0 1.1-7.3 2.8-16.1c1.8-8.8 4.3-19.8 5.7-24.5c1.3-4.7 2.7-8.7 2.9-9c0.3-0.3 7.8 0.1 16.7 0.8c8.9 0.8 19 1.4 28.8 1.7l3-7.5c1.6-4.1 3.7-9.1 4.6-11c0.9-1.9 3.8-8 6.5-13.5c2.8-5.5 6.9-13.1 13.3-23.6l-5.6-5.7c-3-3.1-7.8-8.2-10.6-11.2c-2.8-3-7.1-7.8-9.7-10.5c-2.5-2.8-4.5-5.4-4.5-6c0-0.6 3-5.1 6.6-10c3.7-4.9 8.8-11.4 11.3-14.4c2.5-3 6.4-7.6 13-15.1l5.7 2.9c3.2 1.6 9.9 5.2 14.8 8.1c4.9 2.9 11.4 6.6 19.5 11l2.7-2.3c1.5-1.2 3.9-3.3 5.3-4.7c1.4-1.4 7.9-6.8 14.5-12.1c6.6-5.2 15.3-11.6 19.2-14.2c6.3-4 7.2-5 6.7-7c-0.3-1.2-1.9-6.5-3.5-11.7c-1.5-5.2-4.2-14-5.8-19.5c-1.7-5.5-2.7-10.3-2.3-10.7c0.4-0.3 6.8-3.7 14.2-7.4c7.4-3.7 17-8.2 21.3-10c4.2-1.9 8.4-3.4 9.2-3.4c0.8 0 4.2 3.9 7.5 8.7c3.3 4.9 8.8 12.8 12.3 17.8c5.2 7.5 6.7 9 8.7 8.8c1.4-0.1 10.3-2.2 19.8-4.7c9.4-2.5 22-5.3 27.9-6.1c6-0.9 11-2 11.3-2.4c0.3-0.5 2-10.3 3.9-21.8c1.9-11.4 3.8-21.4 4.4-22.1c0.7-0.9 6.6-1.2 50.2-0.7zm-74.5 85c-6.9 1.5-16.3 3.7-21 5c-4.7 1.3-13.9 4.4-20.5 7c-6.6 2.5-17.6 7.5-24.5 11.1c-6.9 3.6-16.3 9.1-21 12.1c-4.7 3.1-12.3 8.5-17 12.1c-4.7 3.6-11 8.8-14 11.6c-3 2.8-9 8.7-13.4 13.1c-4.3 4.4-10.6 11.4-14 15.5c-3.3 4.1-9.8 13.1-14.4 20c-4.6 6.9-10.9 17.9-14.2 24.5c-3.2 6.6-7.5 16.3-9.5 21.5c-2 5.2-5.2 14.9-7.1 21.5c-1.9 6.6-4.4 16.9-5.4 23c-1.1 6.1-2.4 16.2-3 22.5c-0.5 6.3-1 16-1 21.5c0 5.5 0.5 14.9 1 21c0.6 6.1 1.7 15.1 2.5 20c0.8 4.9 2.1 11.5 2.9 14.5c0.8 3 2.4 9 3.5 13.3c1.2 4.2 2.8 9.6 3.7 11.9c0.9 2.4 3.2 8.1 5.2 12.8c1.9 4.7 5.3 12.1 7.5 16.5c2.2 4.4 6.5 12 9.5 17c3 5 9.4 14.2 14.1 20.5c4.7 6.3 14.9 17.8 22.6 25.6c7.7 7.7 18.5 17.4 24 21.5c5.5 4.1 14 10 19 13.2c4.9 3.3 14.9 8.7 22 12.2c7.1 3.5 18.4 8.4 25 10.8c6.6 2.5 17.6 5.9 24.5 7.5c6.9 1.7 16.3 3.8 21 4.7c4.7 0.8 15.7 2.1 24.5 2.7c12 0.9 20.1 0.9 32.5 0c9.1-0.6 21.4-2.1 27.5-3.2c6.1-1.1 15.5-3.1 21-4.5c5.5-1.3 14.7-4.2 20.5-6.4c5.8-2.1 13.2-5.1 16.5-6.5c3.3-1.5 8.9-4.2 12.5-6c3.6-1.8 8.5-4.4 11-5.8c2.5-1.4 8.1-4.9 12.5-7.8c4.4-2.9 11.8-8.3 16.5-11.9c4.7-3.6 10.3-8.1 12.5-10.1c2.2-1.9 7.8-7.3 12.4-12c4.6-4.7 12-13 16.4-18.5c4.4-5.5 11-14.5 14.6-20c3.6-5.5 9.1-15 12.2-21c3.2-6.1 7.6-15.7 9.9-21.5c2.3-5.8 5.3-14.1 6.6-18.5c1.4-4.4 3.5-12.7 4.8-18.5c1.4-5.8 2.9-13.6 3.5-17.5c0.6-3.9 1.5-13.8 2-22c0.4-8.4 0.4-21.2 0-29c-0.5-7.7-1.6-18.5-2.5-24c-0.9-5.5-2.5-13.6-3.6-18c-1.1-4.4-3.1-11.8-4.5-16.5c-1.4-4.7-3.8-11.6-5.3-15.5c-1.5-3.9-5.2-11.9-8.1-18c-2.9-6.1-7.1-13.9-9.3-17.5c-2.1-3.6-6.2-9.9-9-14c-2.7-4.1-8.5-11.8-12.7-17c-4.2-5.2-13-14.7-19.5-21c-6.6-6.3-17.1-15.4-23.4-20.1c-6.3-4.8-16.5-11.6-22.5-15.2c-6-3.6-16.2-8.9-22.5-11.8c-6.3-2.8-12.9-5.7-14.5-6.4c-1.6-0.7-6.4-2.4-10.5-3.8c-4.1-1.4-12.2-3.7-18-5.1c-5.8-1.3-14.1-3.2-18.5-4.1c-4.4-0.9-12.9-2-19-2.6c-6.1-0.5-18.4-0.8-27.5-0.7c-9.1 0-20.6 0.4-25.5 0.9c-4.9 0.4-14.6 1.9-21.5 3.4z"/>
	</g>
</svg>